REM DIRINDEX 1\2,1\3,1\4,1\5
REM DIRNAME "folder01","folder02","folder03","folder04","folder05"
TITLE ""
FILE "P1Q_t_1010-1019.mp3" MP3
  TRACK 01 AUDIO
    TITLE "3:cjc173_3985"
    INDEX 01 00:00:00
  TRACK 02 AUDIO
    TITLE "0:"
    INDEX 01 00:01:10
  TRACK 03 AUDIO
    TITLE "4:cjc173_3986"
    INDEX 01 00:01:29
  TRACK 04 AUDIO
    TITLE "0:"
    INDEX 01 00:02:60
  TRACK 05 AUDIO
    TITLE "5:cjc173_3987"
    INDEX 01 00:03:03
  TRACK 06 AUDIO
    TITLE "0:"
    INDEX 01 00:07:12
  TRACK 07 AUDIO
    TITLE "3:cjc173_3988"
    INDEX 01 00:07:55
  TRACK 08 AUDIO
    TITLE "0:"
    INDEX 01 00:08:61
  TRACK 09 AUDIO
    TITLE "4:cjc173_3989"
    INDEX 01 00:09:07
  TRACK 10 AUDIO
    TITLE "0:"
    INDEX 01 00:11:57
  TRACK 11 AUDIO
    TITLE "5:cjc173_3990"
    INDEX 01 00:12:02
  TRACK 12 AUDIO
    TITLE "0:"
    INDEX 01 00:17:15
  TRACK 13 AUDIO
    TITLE "3:cjc173_3991"
    INDEX 01 00:17:62
  TRACK 14 AUDIO
    TITLE "0:"
    INDEX 01 00:19:06
  TRACK 15 AUDIO
    TITLE "4:cjc173_3992"
    INDEX 01 00:19:27
  TRACK 16 AUDIO
    TITLE "0:"
    INDEX 01 00:23:45
  TRACK 17 AUDIO
    TITLE "5:cjc173_3993"
    INDEX 01 00:23:64
  TRACK 18 AUDIO
    TITLE "0:"
    INDEX 01 00:27:64
  TRACK 19 AUDIO
    TITLE "3:cjc173_3994"
    INDEX 01 00:28:34
  TRACK 20 AUDIO
    TITLE "0:"
    INDEX 01 00:29:53
  TRACK 21 AUDIO
    TITLE "4:cjc173_3995"
    INDEX 01 00:29:73
  TRACK 22 AUDIO
    TITLE "0:"
    INDEX 01 00:31:34
  TRACK 23 AUDIO
    TITLE "5:cjc173_3996"
    INDEX 01 00:31:54
  TRACK 24 AUDIO
    TITLE "0:"
    INDEX 01 00:36:34
  TRACK 25 AUDIO
    TITLE "3:cjc173_3997"
    INDEX 01 00:37:04
  TRACK 26 AUDIO
    TITLE "0:"
    INDEX 01 00:38:01
  TRACK 27 AUDIO
    TITLE "4:cjc173_3998"
    INDEX 01 00:38:23
  TRACK 28 AUDIO
    TITLE "0:"
    INDEX 01 00:40:06
  TRACK 29 AUDIO
    TITLE "5:cjc173_3999"
    INDEX 01 00:40:25
  TRACK 30 AUDIO
    TITLE "0:"
    INDEX 01 00:44:13
  TRACK 31 AUDIO
    TITLE "3:cjc173_4000"
    INDEX 01 00:44:60
  TRACK 32 AUDIO
    TITLE "0:"
    INDEX 01 00:45:72
  TRACK 33 AUDIO
    TITLE "4:cjc173_4001"
    INDEX 01 00:46:16
  TRACK 34 AUDIO
    TITLE "0:"
    INDEX 01 00:47:61
  TRACK 35 AUDIO
    TITLE "5:cjc173_4002"
    INDEX 01 00:48:05
  TRACK 36 AUDIO
    TITLE "0:"
    INDEX 01 00:52:35
  TRACK 37 AUDIO
    TITLE "3:cjc173_4003"
    INDEX 01 00:53:05
  TRACK 38 AUDIO
    TITLE "0:"
    INDEX 01 00:54:30
  TRACK 39 AUDIO
    TITLE "4:cjc173_4004"
    INDEX 01 00:54:51
  TRACK 40 AUDIO
    TITLE "0:"
    INDEX 01 00:57:42
  TRACK 41 AUDIO
    TITLE "5:cjc173_4005"
    INDEX 01 00:57:63
  TRACK 42 AUDIO
    TITLE "0:"
    INDEX 01 01:02:27
  TRACK 43 AUDIO
    TITLE "3:cjc173_4006"
    INDEX 01 01:02:72
  TRACK 44 AUDIO
    TITLE "0:"
    INDEX 01 01:04:08
  TRACK 45 AUDIO
    TITLE "4:cjc173_4007"
    INDEX 01 01:04:32
  TRACK 46 AUDIO
    TITLE "0:"
    INDEX 01 01:09:00
  TRACK 47 AUDIO
    TITLE "5:cjc173_4008"
    INDEX 01 01:09:19
  TRACK 48 AUDIO
    TITLE "0:"
    INDEX 01 01:13:01
  TRACK 49 AUDIO
    TITLE "3:cjc173_4009"
    INDEX 01 01:13:46
  TRACK 50 AUDIO
    TITLE "0:"
    INDEX 01 01:14:52
  TRACK 51 AUDIO
    TITLE "4:cjc173_4010"
    INDEX 01 01:14:73
  TRACK 52 AUDIO
    TITLE "0:"
    INDEX 01 01:19:10
  TRACK 53 AUDIO
    TITLE "5:cjc173_4011"
    INDEX 01 01:19:27
  TRACK 54 AUDIO
    TITLE "0:"
    INDEX 01 01:24:13
  TRACK 55 AUDIO
    TITLE "3:cjc173_4012"
    INDEX 01 01:24:58
  TRACK 56 AUDIO
    TITLE "0:"
    INDEX 01 01:25:71
  TRACK 57 AUDIO
    TITLE "4:cjc173_4013"
    INDEX 01 01:26:16
  TRACK 58 AUDIO
    TITLE "0:"
    INDEX 01 01:30:72
  TRACK 59 AUDIO
    TITLE "5:cjc173_4014"
    INDEX 01 01:31:17
  TRACK 60 AUDIO
    TITLE "0:"
    INDEX 01 01:35:34
